PathFileType	4	(X/Y/Z)	./resultDataOpenSim/trcMotMarkerGrf/sub10/qtm-13-05.trc
DataRate	CameraRate	NumFrames	NumMarkers	Units	OrigDataRate	OrigDataStartFrame	OrigNumFrames
250.000000	250.000000	13	24	m	250.000000	307	491
Frame#	Time	L.Toe.Tip			R.Toe.Tip			L.Ankle.Lat			R.Ankle.Lat			L.Ankle.Med			R.Ankle.Med			L.Heel			R.Heel			L.Knee.Lat			R.Knee.Lat			L.Knee.Med			R.Knee.Med			L.Thigh.Upper			R.Thigh.Upper			L.ASIS			R.ASIS			V.Sacral			L.Acromium			R.Acromium			C7			L.Elbow			R.Elbow			L.Wrist.Lat			R.Wrist.Lat
		X1	Y1	Z1	X2	Y2	Z2	X3	Y3	Z3	X4	Y4	Z4	X5	Y5	Z5	X6	Y6	Z6	X7	Y7	Z7	X8	Y8	Z8	X9	Y9	Z9	X10	Y10	Z10	X11	Y11	Z11	X12	Y12	Z12	X13	Y13	Z13	X14	Y14	Z14	X15	Y15	Z15	X16	Y16	Z16	X17	Y17	Z17	X18	Y18	Z18	X19	Y19	Z19	X20	Y20	Z20	X21	Y21	Z21	X22	Y22	Z22	X23	Y23	Z23	X24	Y24	Z24

307	1.224	0.12513624	0.043534263	-0.16206871	0.8832818	0.038537176	0.01813711	0.13042785	0.18498836	-0.19653102	0.74181512	0.055157066	0.060613211	0.16561686	0.17998172	-0.11884979	0.75877255	0.077977204	-0.025394025	0.094411252	0.23321625	-0.14442946	0.68890746	0.03004782	0.01833516	0.44171659	0.40452271	-0.22269097	0.79479474	0.45169336	0.073630005	0.46445237	0.35766804	-0.1098326	0.79683497	0.4599253	-0.055004304	0.53339725	0.76883018	-0.22923969	0.64180271	0.82470698	0.14744664	0.62442866	0.8729496	-0.17777054	0.68722656	0.90363893	0.04996916	0.45701404	0.90888508	-0.021267664	0.58396547	1.3750528	-0.18193913	0.54095659	1.3756254	0.12170653	0.48979422	1.3931389	-0.041182669	0.53979282	1.0645929	-0.35468679	0.37103817	1.0912893	0.19513846	0.7867098	1.0416618	-0.39508108	0.31233245	0.96117735	0.39426101
308	1.228	0.1338624	0.047167251	-0.16415634	0.88333237	0.038504063	0.018161306	0.13938396	0.18872606	-0.19706373	0.74177708	0.055171264	0.06055649	0.17438601	0.18317236	-0.11944487	0.7589615	0.077908518	-0.025504292	0.10316866	0.23665341	-0.14450448	0.68893622	0.030156946	0.018194932	0.45292235	0.40397635	-0.22325361	0.79655364	0.45034902	0.072898204	0.47529665	0.35753975	-0.11040318	0.80088578	0.45892741	-0.0550849	0.53971078	0.76923698	-0.22811147	0.64622463	0.82508418	0.14804084	0.63031751	0.87398257	-0.17760401	0.69270964	0.9049037	0.051266362	0.46217366	0.90896708	-0.021782653	0.59016242	1.3755217	-0.18138792	0.54791415	1.3762355	0.12213958	0.49572081	1.3939262	-0.040760018	0.54438042	1.0645634	-0.35284319	0.37958959	1.0900027	0.19406183	0.7910874	1.0396124	-0.39349373	0.32204346	0.95845	0.39268732
309	1.232	0.14291336	0.050741796	-0.1661197	0.88337901	0.038476973	0.018182869	0.1485531	0.19239085	-0.19753431	0.74161787	0.055217712	0.060562904	0.18334515	0.18628355	-0.11994577	0.75913177	0.077850947	-0.02560373	0.11203286	0.24000153	-0.14456204	0.68895969	0.030279005	0.018067384	0.46419562	0.40355134	-0.22384187	0.79828133	0.44914337	0.072211024	0.48626556	0.35748467	-0.11107981	0.80449886	0.45791458	-0.055159964	0.54605756	0.76986549	-0.22699566	0.65070709	0.82552597	0.14861116	0.63610304	0.87516837	-0.17749089	0.69807722	0.90630756	0.052555596	0.46744109	0.90928824	-0.022214697	0.59628041	1.3760387	-0.18087637	0.55479195	1.3768727	0.12256019	0.50158437	1.3947274	-0.040345235	0.54890643	1.0645952	-0.35101773	0.38812927	1.0887766	0.19288461	0.79542101	1.0373525	-0.39189436	0.33188114	0.95576442	0.3911161
310	1.236	0.15225786	0.05424134	-0.16796647	0.88342234	0.038449905	0.018200399	0.15793037	0.19595986	-0.19795009	0.74145528	0.055279723	0.060572188	0.19248719	0.18927389	-0.12031945	0.75929143	0.077798794	-0.025696635	0.1210236	0.24327815	-0.14466394	0.68897983	0.030401032	0.017942482	0.47552216	0.40322923	-0.22446483	0.80009094	0.44819015	0.07176318	0.49725553	0.35747883	-0.11170903	0.80773522	0.45692971	-0.055196213	0.55243265	0.77068229	-0.22594934	0.65522194	0.8260191	0.14913097	0.64180076	0.87648503	-0.17740711	0.70333287	0.90782022	0.053808574	0.47284713	0.90981162	-0.022587427	0.60231532	1.3766052	-0.18041494	0.56158279	1.377534	0.12297455	0.50739112	1.3955482	-0.039929595	0.55337125	1.064693	-0.34921535	0.39664449	1.0876095	0.19162556	0.79967915	1.0348977	-0.39028363	0.34187934	0.95312541	0.38956558
311	1.24	0.16189038	0.057660282	-0.16971639	0.88346417	0.038419053	0.018214931	0.16747041	0.19940757	-0.19830167	0.74137995	0.055330961	0.060539973	0.20179032	0.19212606	-0.1205637	0.75944929	0.077747348	-0.025786561	0.13017502	0.24648008	-0.14485298	0.68899947	0.030509824	0.01781449	0.48687304	0.40300275	-0.22510851	0.80199515	0.44746488	0.071552924	0.50820301	0.35750616	-0.11217346	0.81065462	0.45601208	-0.055190686	0.55881588	0.77163752	-0.22501863	0.65973663	0.8265472	0.14957324	0.64742196	0.87791328	-0.17733785	0.70847495	0.90941359	0.055005977	0.47836194	0.91048951	-0.022914777	0.60827233	1.3772262	-0.18001303	0.56827626	1.3782219	0.1233837	0.5131499	1.3963968	-0.039508404	0.55777279	1.0648575	-0.34743738	0.40511192	1.0865084	0.19035114	0.80383388	1.0323426	-0.38868757	0.35206521	0.95054206	0.38805143
312	1.244	0.17181236	0.06099576	-0.17138709	0.88350825	0.038387146	0.018231372	0.17707642	0.20271687	-0.19855151	0.74139313	0.055363191	0.060467772	0.21123606	0.19482758	-0.12068639	0.75960931	0.07769712	-0.025872851	0.1395013	0.24956375	-0.14506385	0.68901809	0.030607703	0.017694437	0.49822794	0.40287935	-0.22576172	0.80396367	0.44686023	0.071487065	0.51914233	0.35758019	-0.11249464	0.81328446	0.45519183	-0.055168247	0.56519753	0.77268316	-0.22422489	0.66425615	0.82710625	0.14993651	0.65297443	0.8794323	-0.17728093	0.7135154	0.91106167	0.056152748	0.48392188	0.91126081	-0.023199242	0.61416298	1.3779133	-0.17968678	0.57486197	1.3789436	0.12379097	0.51887209	1.397282	-0.039078024	0.56211057	1.0650891	-0.34568587	0.41352043	1.0854783	0.18911771	0.80788044	1.0297798	-0.38712802	0.36242879	0.94802161	0.38657133
313	1.248	0.18201301	0.064240645	-0.1729832	0.88355691	0.038359018	0.018252636	0.18670925	0.20588829	-0.19869119	0.7414551	0.055384151	0.06038001	0.22083643	0.19739991	-0.12073934	0.75977186	0.077653137	-0.025952707	0.14898302	0.25248109	-0.14517691	0.68903562	0.030706061	0.017591653	0.50959366	0.40287593	-0.22643517	0.80597857	0.44627345	0.071470779	0.53013597	0.3577313	-0.112778	0.8156318	0.45448331	-0.055157926	0.57158538	0.77377851	-0.22356544	0.66883933	0.82770753	0.15025134	0.65847006	0.88102058	-0.17723464	0.71848608	0.91273699	0.057264431	0.48948496	0.91207883	-0.023417575	0.61999199	1.3786792	-0.17945675	0.5813342	1.3797062	0.12420367	0.52456581	1.3982155	-0.038637101	0.56638946	1.0653925	-0.34396633	0.42187938	1.084514	0.18793148	0.81185711	1.0272291	-0.38558577	0.37291833	0.94556265	0.385105
314	1.252	0.19247432	0.067387093	-0.17450685	0.88360666	0.038336085	0.018275847	0.19644564	0.20893657	-0.19877268	0.74153705	0.055403265	0.060297853	0.23062983	0.19989916	-0.12082321	0.75993492	0.077619583	-0.026023892	0.15860247	0.25521596	-0.14514827	0.68905324	0.030811486	0.017503069	0.52098418	0.40300782	-0.22714837	0.80802769	0.44566009	0.071438134	0.54120141	0.35797857	-0.11311848	0.81771405	0.45388273	-0.055158028	0.57798797	0.77489113	-0.22303213	0.67355146	0.82836022	0.15054915	0.66393004	0.88266491	-0.17718571	0.72342058	0.91441478	0.058340446	0.49509383	0.91299335	-0.023465415	0.62574296	1.3795306	-0.17932148	0.58768892	1.3805148	0.12462539	0.53023506	1.3992087	-0.038189823	0.57061794	1.0657747	-0.34228707	0.43020149	1.0836071	0.18677608	0.81582396	1.0246535	-0.38401584	0.38348411	0.9431598	0.38363548
315	1.256	0.20318216	0.070429035	-0.1759683	0.88364941	0.038316403	0.018296078	0.20641613	0.21187437	-0.19888386	0.74162611	0.055423854	0.060232007	0.24064191	0.20235978	-0.12100666	0.76009174	0.07759675	-0.026084151	0.16837573	0.25777628	-0.14503849	0.68906973	0.030922374	0.017421633	0.53238913	0.40327803	-0.22790405	0.81010375	0.44504301	0.071377484	0.55231477	0.35832052	-0.1135587	0.81956781	0.45337345	-0.055142127	0.58439973	0.77600418	-0.2226268	0.67841934	0.82906826	0.15083907	0.66937972	0.88436279	-0.17711246	0.72834049	0.9160792	0.059365543	0.50091456	0.91416338	-0.023124189	0.63138107	1.3804663	-0.17924739	0.59392383	1.3813734	0.12505093	0.5358797	1.4002669	-0.037741796	0.57480238	1.0662348	-0.3406541	0.43848958	1.0827567	0.18564405	0.81979221	1.0220089	-0.3824071	0.39410867	0.94081129	0.38215895
316	1.26	0.21413011	0.073358386	-0.17738375	0.88367881	0.038297311	0.018311877	0.21671368	0.21469858	-0.1991036	0.74171228	0.055442703	0.060185542	0.25086213	0.20476611	-0.12127384	0.7602312	0.077583614	-0.026129776	0.17832965	0.26017771	-0.14494372	0.68908	0.031033345	0.017345439	0.54377116	0.40367895	-0.22868415	0.8122148	0.44448055	0.071332584	0.56345027	0.35874623	-0.11408937	0.82123978	0.45293669	-0.055093836	0.59080422	0.77712321	-0.22235856	0.68343523	0.82984417	0.15111816	0.67483306	0.8861115	-0.17700045	0.73326127	0.91771966	0.060332541	0.50714971	0.91570527	-0.022170933	0.63688367	1.3814822	-0.17920263	0.60004552	1.3822869	0.12546914	0.54149355	1.4013883	-0.037292806	0.57894433	1.0667634	-0.33906556	0.44673706	1.0819715	0.18453824	0.82367816	1.0192749	-0.38081468	0.4047868	0.9385189	0.38067299
317	1.264	0.22531836	0.076164243	-0.17876353	0.88369402	0.038277492	0.018326671	0.22731439	0.21739621	-0.1994365	0.74177973	0.055456142	0.060161356	0.2612617	0.20708386	-0.12157462	0.7603449	0.077581538	-0.026156687	0.18845792	0.2624397	-0.14493649	0.68907789	0.031140746	0.017278506	0.55508999	0.40420537	-0.22946542	0.81437504	0.44402882	0.071369076	0.57460351	0.35925288	-0.1146794	0.82278481	0.45255921	-0.055009106	0.59718774	0.77827304	-0.22222509	0.68856876	0.83070291	0.15137991	0.68027134	0.88789606	-0.17686227	0.73819685	0.91932153	0.061244837	0.51381736	0.91755303	-0.020605164	0.64225883	1.3825761	-0.17918618	0.60606914	1.3832593	0.12586987	0.54707009	1.4025691	-0.036839964	0.58304503	1.0673569	-0.33751385	0.45493111	1.0812637	0.18346782	0.82733867	1.016466	-0.3793266	0.41550304	0.9362829	0.37916726
318	1.268	0.2367511	0.078835878	-0.18010384	0.88369758	0.038258081	0.018346562	0.23806808	0.21995791	-0.19978966	0.74180341	0.055469922	0.060169939	0.27182106	0.20929272	-0.12187964	0.76043337	0.077594358	-0.026162763	0.19871172	0.26458455	-0.14504616	0.68906104	0.031245803	0.017224934	0.56632821	0.40486213	-0.23023263	0.81658697	0.44372293	0.071521703	0.58577743	0.35985286	-0.11530781	0.82425984	0.45223308	-0.054885233	0.6035503	0.77948613	-0.2221956	0.69377361	0.83164332	0.15161307	0.68564189	0.88969253	-0.17673791	0.74315198	0.92086742	0.062099011	0.52062283	0.91950736	-0.018764107	0.64752659	1.3837477	-0.17920798	0.61200499	1.3842916	0.12625148	0.55260909	1.403808	-0.036387468	0.58711074	1.0680215	-0.33599315	0.46305462	1.0806435	0.18244752	0.83066643	1.0136462	-0.37800415	0.42625717	0.93410389	0.37763339
319	1.272	0.24843519	0.081361655	-0.18139288	0.88369237	0.038241558	0.018376579	0.2488411	0.22237708	-0.20007685	0.7417572	0.055502273	0.060225529	0.28253422	0.21138991	-0.12217936	0.76050472	0.07762529	-0.026149355	0.20903851	0.2666161	-0.14524495	0.68903402	0.031352583	0.017183333	0.57750174	0.40565532	-0.23097959	0.81883608	0.44356428	0.071767998	0.59695607	0.36056363	-0.11595486	0.82571143	0.4519497	-0.054728212	0.60990174	0.78078742	-0.22221813	0.69900979	0.83265007	0.15181176	0.69090389	0.89148345	-0.17665738	0.7481144	0.92234726	0.062879792	0.52715304	0.92137087	-0.01712019	0.65270008	1.3849976	-0.1792613	0.61784551	1.3853822	0.1266206	0.55811157	1.4051034	-0.035950495	0.59115176	1.0687614	-0.33450349	0.47108875	1.0801146	0.18149311	0.83370025	1.0109308	-0.37683719	0.43710619	0.93199085	0.37608106
